<svg xmlns="http://www.w3.org/2000/svg" viewBox="0 0 32 32" width="32" height="32">
  <defs>
    <style>
      .india-map { fill: #ff9933; stroke: #138808; stroke-width: 0.5; }
      .bg { fill: #ffffff; }
    </style>
  </defs>
  
  <!-- Background -->
  <rect class="bg" width="32" height="32"/>
  
  <!-- Simplified India map outline -->
  <path class="india-map" d="M16 2 C18 2 20 3 21 5 C22 6 23 8 23 10 C24 12 24 14 23 16 C23 18 22 20 21 22 C20 24 18 26 16 27 C14 28 12 28 10 27 C8 26 6 24 5 22 C4 20 4 18 4 16 C4 14 4 12 5 10 C5 8 6 6 7 5 C8 3 10 2 12 2 C14 2 16 2 16 2 Z M16 6 C17 6 18 7 18 8 C18 9 17 10 16 10 C15 10 14 9 14 8 C14 7 15 6 16 6 Z M10 12 C11 12 12 13 12 14 C12 15 11 16 10 16 C9 16 8 15 8 14 C8 13 9 12 10 12 Z M22 12 C23 12 24 13 24 14 C24 15 23 16 22 16 C21 16 20 15 20 14 C20 13 21 12 22 12 Z"/>
</svg>